%TF.GenerationSoftware,KiCad,Pcbnew,9.0.5*%
%TF.CreationDate,2025-11-20T09:04:40-08:00*%
%TF.ProjectId,PracticumEQLightBar,50726163-7469-4637-956d-45514c696768,1.2*%
%TF.SameCoordinates,Original*%
%TF.FileFunction,Soldermask,Top*%
%TF.FilePolarity,Negative*%
%FSLAX46Y46*%
G04 Gerber Fmt 4.6, Leading zero omitted, Abs format (unit mm)*
G04 Created by KiCad (PCBNEW 9.0.5) date 2025-11-20 09:04:40*
%MOMM*%
%LPD*%
G01*
G04 APERTURE LIST*
G04 Aperture macros list*
%AMRoundRect*
0 Rectangle with rounded corners*
0 $1 Rounding radius*
0 $2 $3 $4 $5 $6 $7 $8 $9 X,Y pos of 4 corners*
0 Add a 4 corners polygon primitive as box body*
4,1,4,$2,$3,$4,$5,$6,$7,$8,$9,$2,$3,0*
0 Add four circle primitives for the rounded corners*
1,1,$1+$1,$2,$3*
1,1,$1+$1,$4,$5*
1,1,$1+$1,$6,$7*
1,1,$1+$1,$8,$9*
0 Add four rect primitives between the rounded corners*
20,1,$1+$1,$2,$3,$4,$5,0*
20,1,$1+$1,$4,$5,$6,$7,0*
20,1,$1+$1,$6,$7,$8,$9,0*
20,1,$1+$1,$8,$9,$2,$3,0*%
G04 Aperture macros list end*
%ADD10R,2.000000X1.100000*%
%ADD11RoundRect,0.250000X-0.550000X0.550000X-0.550000X-0.550000X0.550000X-0.550000X0.550000X0.550000X0*%
%ADD12C,1.600000*%
%ADD13C,3.500000*%
%ADD14C,1.700000*%
%ADD15R,1.700000X1.700000*%
%ADD16R,1.500000X1.500000*%
%ADD17C,1.500000*%
%ADD18C,4.260000*%
%ADD19R,1.000000X1.000000*%
%ADD20RoundRect,0.250000X0.550000X-0.550000X0.550000X0.550000X-0.550000X0.550000X-0.550000X-0.550000X0*%
%ADD21RoundRect,0.250000X-0.494975X0.000000X0.000000X-0.494975X0.494975X0.000000X0.000000X0.494975X0*%
%ADD22C,1.200000*%
%ADD23RoundRect,0.250000X-0.350000X-0.350000X0.350000X-0.350000X0.350000X0.350000X-0.350000X0.350000X0*%
%ADD24RoundRect,0.102000X-0.570000X0.570000X-0.570000X-0.570000X0.570000X-0.570000X0.570000X0.570000X0*%
%ADD25C,1.344000*%
%ADD26C,4.800000*%
G04 APERTURE END LIST*
D10*
%TO.C,D39*%
X192786000Y-125222000D03*
X192786000Y-123522000D03*
X192786000Y-121822000D03*
X187986000Y-121822000D03*
X187986000Y-123522000D03*
X187986000Y-125222000D03*
%TD*%
D11*
%TO.C,C1*%
X49530000Y-118745000D03*
D12*
X49530002Y-122545000D03*
%TD*%
%TO.C,C2*%
X41275000Y-89575001D03*
X41275000Y-94575001D03*
%TD*%
D10*
%TO.C,D17*%
X201230000Y-130720000D03*
X201230000Y-132420000D03*
X201230000Y-134120000D03*
X206030000Y-134120000D03*
X206030000Y-132420000D03*
X206030000Y-130720000D03*
%TD*%
%TO.C,D49*%
X68326000Y-125222000D03*
X68326000Y-123522000D03*
X68326000Y-121822000D03*
X63526000Y-121822000D03*
X63526000Y-123522000D03*
X63526000Y-125222000D03*
%TD*%
%TO.C,D44*%
X130556000Y-125222000D03*
X130556000Y-123522000D03*
X130556000Y-121822000D03*
X125756000Y-121822000D03*
X125756000Y-123522000D03*
X125756000Y-125222000D03*
%TD*%
D13*
%TO.C,REF\u002A\u002A*%
X39000000Y-139000000D03*
%TD*%
%TO.C,REF\u002A\u002A*%
X177000000Y-112000000D03*
%TD*%
D12*
%TO.C,C5*%
X158750000Y-93980000D03*
X153750000Y-93980000D03*
%TD*%
D10*
%TO.C,D14*%
X174560000Y-130720000D03*
X174560000Y-132420000D03*
X174560000Y-134120000D03*
X179360000Y-134120000D03*
X179360000Y-132420000D03*
X179360000Y-130720000D03*
%TD*%
D14*
%TO.C,U1*%
X40640000Y-99060000D03*
X43180000Y-99060000D03*
X45720000Y-99060000D03*
X48260000Y-99060000D03*
X73660000Y-99060000D03*
X43169778Y-83723494D03*
X50800000Y-99060000D03*
X53340000Y-99060000D03*
X55880000Y-99060000D03*
X58420000Y-99060000D03*
X60960000Y-99060000D03*
X63500000Y-99060000D03*
X66040000Y-99060000D03*
X68580000Y-99060000D03*
X71120000Y-99060000D03*
X71109778Y-83723494D03*
X68569778Y-83723494D03*
X66029778Y-83723494D03*
X63489778Y-83723494D03*
X60949778Y-83723494D03*
X58409778Y-83723494D03*
X55869778Y-83723494D03*
X53329778Y-83723494D03*
X50789778Y-83723494D03*
X48249778Y-83723494D03*
X45709778Y-83723494D03*
X76200000Y-99060000D03*
X78740000Y-99060000D03*
X81280000Y-99060000D03*
X83820000Y-99060000D03*
X86360000Y-99060000D03*
X88900000Y-99060000D03*
X91440000Y-99060000D03*
X93980000Y-99060000D03*
X96520000Y-99060000D03*
X96509778Y-83723494D03*
X93969778Y-83723494D03*
X91429778Y-83723494D03*
X88889778Y-83723494D03*
X86349778Y-83723494D03*
X83809778Y-83723494D03*
X81269778Y-83723494D03*
X78729778Y-83723494D03*
X76189778Y-83723494D03*
D15*
X38100000Y-99060000D03*
D14*
X73649778Y-83723494D03*
D15*
X40629778Y-83723494D03*
D14*
X38089778Y-83723494D03*
%TD*%
D10*
%TO.C,D5*%
X94550000Y-130720000D03*
X94550000Y-132420000D03*
X94550000Y-134120000D03*
X99350000Y-134120000D03*
X99350000Y-132420000D03*
X99350000Y-130720000D03*
%TD*%
%TO.C,D35*%
X237236000Y-125222000D03*
X237236000Y-123522000D03*
X237236000Y-121822000D03*
X232436000Y-121822000D03*
X232436000Y-123522000D03*
X232436000Y-125222000D03*
%TD*%
%TO.C,D40*%
X175006000Y-125222000D03*
X175006000Y-123522000D03*
X175006000Y-121822000D03*
X170206000Y-121822000D03*
X170206000Y-123522000D03*
X170206000Y-125222000D03*
%TD*%
%TO.C,D29*%
X307910000Y-130720000D03*
X307910000Y-132420000D03*
X307910000Y-134120000D03*
X312710000Y-134120000D03*
X312710000Y-132420000D03*
X312710000Y-130720000D03*
%TD*%
%TO.C,D11*%
X147890000Y-130720000D03*
X147890000Y-132420000D03*
X147890000Y-134120000D03*
X152690000Y-134120000D03*
X152690000Y-132420000D03*
X152690000Y-130720000D03*
%TD*%
D13*
%TO.C,REF\u002A\u002A*%
X319000000Y-139000000D03*
%TD*%
D10*
%TO.C,D16*%
X192340000Y-130720000D03*
X192340000Y-132420000D03*
X192340000Y-134120000D03*
X197140000Y-134120000D03*
X197140000Y-132420000D03*
X197140000Y-130720000D03*
%TD*%
%TO.C,D46*%
X103886000Y-125222000D03*
X103886000Y-123522000D03*
X103886000Y-121822000D03*
X99086000Y-121822000D03*
X99086000Y-123522000D03*
X99086000Y-125222000D03*
%TD*%
D16*
%TO.C,RV1*%
X137755000Y-102235000D03*
D17*
X135255000Y-102235000D03*
X132755000Y-102235000D03*
D18*
X139655000Y-109235000D03*
X130855000Y-109235000D03*
%TD*%
D10*
%TO.C,D47*%
X94996000Y-125222000D03*
X94996000Y-123522000D03*
X94996000Y-121822000D03*
X90196000Y-121822000D03*
X90196000Y-123522000D03*
X90196000Y-125222000D03*
%TD*%
%TO.C,D34*%
X255016000Y-125222000D03*
X255016000Y-123522000D03*
X255016000Y-121822000D03*
X250216000Y-121822000D03*
X250216000Y-123522000D03*
X250216000Y-125222000D03*
%TD*%
D19*
%TO.C,TP1*%
X109220000Y-92075000D03*
%TD*%
D10*
%TO.C,D7*%
X112330000Y-130720000D03*
X112330000Y-132420000D03*
X112330000Y-134120000D03*
X117130000Y-134120000D03*
X117130000Y-132420000D03*
X117130000Y-130720000D03*
%TD*%
%TO.C,D3*%
X76770000Y-130720000D03*
X76770000Y-132420000D03*
X76770000Y-134120000D03*
X81570000Y-134120000D03*
X81570000Y-132420000D03*
X81570000Y-130720000D03*
%TD*%
%TO.C,D26*%
X281240000Y-130720000D03*
X281240000Y-132420000D03*
X281240000Y-134120000D03*
X286040000Y-134120000D03*
X286040000Y-132420000D03*
X286040000Y-130720000D03*
%TD*%
%TO.C,D18*%
X210120000Y-130720000D03*
X210120000Y-132420000D03*
X210120000Y-134120000D03*
X214920000Y-134120000D03*
X214920000Y-132420000D03*
X214920000Y-130720000D03*
%TD*%
%TO.C,D12*%
X156780000Y-130720000D03*
X156780000Y-132420000D03*
X156780000Y-134120000D03*
X161580000Y-134120000D03*
X161580000Y-132420000D03*
X161580000Y-130720000D03*
%TD*%
D12*
%TO.C,R1*%
X43180000Y-120015001D03*
X43180000Y-127635001D03*
%TD*%
D10*
%TO.C,D25*%
X272350000Y-130720000D03*
X272350000Y-132420000D03*
X272350000Y-134120000D03*
X277150000Y-134120000D03*
X277150000Y-132420000D03*
X277150000Y-130720000D03*
%TD*%
%TO.C,D37*%
X219456000Y-125222000D03*
X219456000Y-123522000D03*
X219456000Y-121822000D03*
X214656000Y-121822000D03*
X214656000Y-123522000D03*
X214656000Y-125222000D03*
%TD*%
D20*
%TO.C,U3*%
X147320000Y-110490000D03*
D12*
X149860000Y-110490000D03*
X152400000Y-110490000D03*
X154940000Y-110490000D03*
X154940000Y-102870000D03*
X152400000Y-102870000D03*
X149860000Y-102870000D03*
X147320000Y-102870000D03*
%TD*%
D10*
%TO.C,D9*%
X130110000Y-130720000D03*
X130110000Y-132420000D03*
X130110000Y-134120000D03*
X134910000Y-134120000D03*
X134910000Y-132420000D03*
X134910000Y-130720000D03*
%TD*%
%TO.C,D28*%
X299020000Y-130720000D03*
X299020000Y-132420000D03*
X299020000Y-134120000D03*
X303820000Y-134120000D03*
X303820000Y-132420000D03*
X303820000Y-130720000D03*
%TD*%
%TO.C,D36*%
X228346000Y-125222000D03*
X228346000Y-123522000D03*
X228346000Y-121822000D03*
X223546000Y-121822000D03*
X223546000Y-123522000D03*
X223546000Y-125222000D03*
%TD*%
%TO.C,D4*%
X85660000Y-130720000D03*
X85660000Y-132420000D03*
X85660000Y-134120000D03*
X90460000Y-134120000D03*
X90460000Y-132420000D03*
X90460000Y-130720000D03*
%TD*%
D15*
%TO.C,TP5*%
X43180000Y-116840000D03*
%TD*%
D19*
%TO.C,TP4*%
X125730000Y-89535000D03*
%TD*%
D15*
%TO.C,TP6*%
X39370000Y-116840000D03*
%TD*%
D10*
%TO.C,D22*%
X245680000Y-130720000D03*
X245680000Y-132420000D03*
X245680000Y-134120000D03*
X250480000Y-134120000D03*
X250480000Y-132420000D03*
X250480000Y-130720000D03*
%TD*%
%TO.C,D2*%
X67880000Y-130720000D03*
X67880000Y-132420000D03*
X67880000Y-134120000D03*
X72680000Y-134120000D03*
X72680000Y-132420000D03*
X72680000Y-130720000D03*
%TD*%
%TO.C,D27*%
X290130000Y-130720000D03*
X290130000Y-132420000D03*
X290130000Y-134120000D03*
X294930000Y-134120000D03*
X294930000Y-132420000D03*
X294930000Y-130720000D03*
%TD*%
%TO.C,D32*%
X281686000Y-125222000D03*
X281686000Y-123522000D03*
X281686000Y-121822000D03*
X276886000Y-121822000D03*
X276886000Y-123522000D03*
X276886000Y-125222000D03*
%TD*%
%TO.C,D38*%
X201676000Y-125222000D03*
X201676000Y-123522000D03*
X201676000Y-121822000D03*
X196876000Y-121822000D03*
X196876000Y-123522000D03*
X196876000Y-125222000D03*
%TD*%
%TO.C,D13*%
X165670000Y-130720000D03*
X165670000Y-132420000D03*
X165670000Y-134120000D03*
X170470000Y-134120000D03*
X170470000Y-132420000D03*
X170470000Y-130720000D03*
%TD*%
D12*
%TO.C,C6*%
X149860000Y-99060000D03*
X154860000Y-99060000D03*
%TD*%
D10*
%TO.C,D30*%
X299466000Y-125222000D03*
X299466000Y-123522000D03*
X299466000Y-121822000D03*
X294666000Y-121822000D03*
X294666000Y-123522000D03*
X294666000Y-125222000D03*
%TD*%
D21*
%TO.C,C3*%
X112957893Y-92120386D03*
D22*
X114372107Y-93534600D03*
%TD*%
D10*
%TO.C,D15*%
X183450000Y-130720000D03*
X183450000Y-132420000D03*
X183450000Y-134120000D03*
X188250000Y-134120000D03*
X188250000Y-132420000D03*
X188250000Y-130720000D03*
%TD*%
%TO.C,D21*%
X236790000Y-130720000D03*
X236790000Y-132420000D03*
X236790000Y-134120000D03*
X241590000Y-134120000D03*
X241590000Y-132420000D03*
X241590000Y-130720000D03*
%TD*%
%TO.C,D31*%
X290576000Y-125222000D03*
X290576000Y-123522000D03*
X290576000Y-121822000D03*
X285776000Y-121822000D03*
X285776000Y-123522000D03*
X285776000Y-125222000D03*
%TD*%
D13*
%TO.C,REF\u002A\u002A*%
X319000000Y-112000000D03*
%TD*%
D10*
%TO.C,D43*%
X139446000Y-125222000D03*
X139446000Y-123522000D03*
X139446000Y-121822000D03*
X134646000Y-121822000D03*
X134646000Y-123522000D03*
X134646000Y-125222000D03*
%TD*%
%TO.C,D6*%
X103440000Y-130720000D03*
X103440000Y-132420000D03*
X103440000Y-134120000D03*
X108240000Y-134120000D03*
X108240000Y-132420000D03*
X108240000Y-130720000D03*
%TD*%
%TO.C,D19*%
X219010000Y-130720000D03*
X219010000Y-132420000D03*
X219010000Y-134120000D03*
X223810000Y-134120000D03*
X223810000Y-132420000D03*
X223810000Y-130720000D03*
%TD*%
%TO.C,D33*%
X263906000Y-125222000D03*
X263906000Y-123522000D03*
X263906000Y-121822000D03*
X259106000Y-121822000D03*
X259106000Y-123522000D03*
X259106000Y-125222000D03*
%TD*%
%TO.C,D48*%
X77216000Y-125222000D03*
X77216000Y-123522000D03*
X77216000Y-121822000D03*
X72416000Y-121822000D03*
X72416000Y-123522000D03*
X72416000Y-125222000D03*
%TD*%
D12*
%TO.C,R2*%
X143510000Y-93980000D03*
X151130000Y-93980000D03*
%TD*%
D10*
%TO.C,D24*%
X263460000Y-130720000D03*
X263460000Y-132420000D03*
X263460000Y-134120000D03*
X268260000Y-134120000D03*
X268260000Y-132420000D03*
X268260000Y-130720000D03*
%TD*%
D15*
%TO.C,J1*%
X165100000Y-105410000D03*
D14*
X165100000Y-102870000D03*
%TD*%
D10*
%TO.C,D10*%
X139000000Y-130720000D03*
X139000000Y-132420000D03*
X139000000Y-134120000D03*
X143800000Y-134120000D03*
X143800000Y-132420000D03*
X143800000Y-130720000D03*
%TD*%
%TO.C,D23*%
X254570000Y-130720000D03*
X254570000Y-132420000D03*
X254570000Y-134120000D03*
X259370000Y-134120000D03*
X259370000Y-132420000D03*
X259370000Y-130720000D03*
%TD*%
D12*
%TO.C,C7*%
X69215000Y-112395000D03*
X69215000Y-107395000D03*
%TD*%
D13*
%TO.C,REF\u002A\u002A*%
X39000000Y-79000000D03*
%TD*%
D10*
%TO.C,D1*%
X58990000Y-130720000D03*
X58990000Y-132420000D03*
X58990000Y-134120000D03*
X63790000Y-134120000D03*
X63790000Y-132420000D03*
X63790000Y-130720000D03*
%TD*%
D23*
%TO.C,C4*%
X158750000Y-102870000D03*
D22*
X160750000Y-102870000D03*
%TD*%
D10*
%TO.C,D42*%
X157226000Y-125222000D03*
X157226000Y-123522000D03*
X157226000Y-121822000D03*
X152426000Y-121822000D03*
X152426000Y-123522000D03*
X152426000Y-125222000D03*
%TD*%
%TO.C,D45*%
X112776000Y-125222000D03*
X112776000Y-123522000D03*
X112776000Y-121822000D03*
X107976000Y-121822000D03*
X107976000Y-123522000D03*
X107976000Y-125222000D03*
%TD*%
D15*
%TO.C,J3*%
X125730000Y-104775000D03*
D14*
X125730000Y-102235000D03*
%TD*%
D10*
%TO.C,D20*%
X227900000Y-130720000D03*
X227900000Y-132420000D03*
X227900000Y-134120000D03*
X232700000Y-134120000D03*
X232700000Y-132420000D03*
X232700000Y-130720000D03*
%TD*%
D13*
%TO.C,REF\u002A\u002A*%
X144000000Y-79000000D03*
%TD*%
D19*
%TO.C,TP2*%
X54610000Y-115570000D03*
%TD*%
%TO.C,TP3*%
X144145000Y-99060000D03*
%TD*%
D24*
%TO.C,U4*%
X62864998Y-104454999D03*
D25*
X60325002Y-104454998D03*
X57785001Y-104455001D03*
X55245000Y-104454998D03*
X52705000Y-104455001D03*
X50165001Y-104454998D03*
X47624998Y-104454998D03*
X47625002Y-112394999D03*
X50164998Y-112395000D03*
X52704999Y-112394997D03*
X55245000Y-112395000D03*
X57785000Y-112394997D03*
X60324999Y-112395000D03*
X62865002Y-112395000D03*
%TD*%
D10*
%TO.C,D41*%
X166116000Y-125222000D03*
X166116000Y-123522000D03*
X166116000Y-121822000D03*
X161316000Y-121822000D03*
X161316000Y-123522000D03*
X161316000Y-125222000D03*
%TD*%
%TO.C,D8*%
X121220000Y-130720000D03*
X121220000Y-132420000D03*
X121220000Y-134120000D03*
X126020000Y-134120000D03*
X126020000Y-132420000D03*
X126020000Y-130720000D03*
%TD*%
D26*
%TO.C,J2*%
X118084000Y-87074000D03*
X118084000Y-81274000D03*
X113284000Y-84074000D03*
%TD*%
M02*
