%TF.GenerationSoftware,KiCad,Pcbnew,9.0.5*%
%TF.CreationDate,2025-11-20T09:04:40-08:00*%
%TF.ProjectId,PracticumEQLightBar,50726163-7469-4637-956d-45514c696768,1.2*%
%TF.SameCoordinates,Original*%
%TF.FileFunction,Legend,Bot*%
%TF.FilePolarity,Positive*%
%FSLAX46Y46*%
G04 Gerber Fmt 4.6, Leading zero omitted, Abs format (unit mm)*
G04 Created by KiCad (PCBNEW 9.0.5) date 2025-11-20 09:04:40*
%MOMM*%
%LPD*%
G01*
G04 APERTURE LIST*
G04 Aperture macros list*
%AMRoundRect*
0 Rectangle with rounded corners*
0 $1 Rounding radius*
0 $2 $3 $4 $5 $6 $7 $8 $9 X,Y pos of 4 corners*
0 Add a 4 corners polygon primitive as box body*
4,1,4,$2,$3,$4,$5,$6,$7,$8,$9,$2,$3,0*
0 Add four circle primitives for the rounded corners*
1,1,$1+$1,$2,$3*
1,1,$1+$1,$4,$5*
1,1,$1+$1,$6,$7*
1,1,$1+$1,$8,$9*
0 Add four rect primitives between the rounded corners*
20,1,$1+$1,$2,$3,$4,$5,0*
20,1,$1+$1,$4,$5,$6,$7,0*
20,1,$1+$1,$6,$7,$8,$9,0*
20,1,$1+$1,$8,$9,$2,$3,0*%
G04 Aperture macros list end*
%ADD10RoundRect,0.250000X-0.550000X0.550000X-0.550000X-0.550000X0.550000X-0.550000X0.550000X0.550000X0*%
%ADD11C,1.600000*%
%ADD12C,3.500000*%
%ADD13C,1.700000*%
%ADD14R,1.700000X1.700000*%
%ADD15R,1.500000X1.500000*%
%ADD16C,1.500000*%
%ADD17C,4.260000*%
%ADD18RoundRect,0.250000X0.550000X-0.550000X0.550000X0.550000X-0.550000X0.550000X-0.550000X-0.550000X0*%
%ADD19RoundRect,0.250000X-0.494975X0.000000X0.000000X-0.494975X0.494975X0.000000X0.000000X0.494975X0*%
%ADD20C,1.200000*%
%ADD21RoundRect,0.250000X-0.350000X-0.350000X0.350000X-0.350000X0.350000X0.350000X-0.350000X0.350000X0*%
%ADD22RoundRect,0.102000X-0.570000X0.570000X-0.570000X-0.570000X0.570000X-0.570000X0.570000X0.570000X0*%
%ADD23C,1.344000*%
%ADD24C,4.800000*%
G04 APERTURE END LIST*
%LPC*%
D10*
%TO.C,C1*%
X49530000Y-118745000D03*
D11*
X49530002Y-122545000D03*
%TD*%
%TO.C,C2*%
X41275000Y-89575001D03*
X41275000Y-94575001D03*
%TD*%
D12*
%TO.C,REF\u002A\u002A*%
X39000000Y-139000000D03*
%TD*%
%TO.C,REF\u002A\u002A*%
X177000000Y-112000000D03*
%TD*%
D11*
%TO.C,C5*%
X158750000Y-93980000D03*
X153750000Y-93980000D03*
%TD*%
D13*
%TO.C,U1*%
X40640000Y-99060000D03*
X43180000Y-99060000D03*
X45720000Y-99060000D03*
X48260000Y-99060000D03*
X73660000Y-99060000D03*
X43169778Y-83723494D03*
X50800000Y-99060000D03*
X53340000Y-99060000D03*
X55880000Y-99060000D03*
X58420000Y-99060000D03*
X60960000Y-99060000D03*
X63500000Y-99060000D03*
X66040000Y-99060000D03*
X68580000Y-99060000D03*
X71120000Y-99060000D03*
X71109778Y-83723494D03*
X68569778Y-83723494D03*
X66029778Y-83723494D03*
X63489778Y-83723494D03*
X60949778Y-83723494D03*
X58409778Y-83723494D03*
X55869778Y-83723494D03*
X53329778Y-83723494D03*
X50789778Y-83723494D03*
X48249778Y-83723494D03*
X45709778Y-83723494D03*
X76200000Y-99060000D03*
X78740000Y-99060000D03*
X81280000Y-99060000D03*
X83820000Y-99060000D03*
X86360000Y-99060000D03*
X88900000Y-99060000D03*
X91440000Y-99060000D03*
X93980000Y-99060000D03*
X96520000Y-99060000D03*
X96509778Y-83723494D03*
X93969778Y-83723494D03*
X91429778Y-83723494D03*
X88889778Y-83723494D03*
X86349778Y-83723494D03*
X83809778Y-83723494D03*
X81269778Y-83723494D03*
X78729778Y-83723494D03*
X76189778Y-83723494D03*
D14*
X38100000Y-99060000D03*
D13*
X73649778Y-83723494D03*
D14*
X40629778Y-83723494D03*
D13*
X38089778Y-83723494D03*
%TD*%
D12*
%TO.C,REF\u002A\u002A*%
X319000000Y-139000000D03*
%TD*%
D15*
%TO.C,RV1*%
X137755000Y-102235000D03*
D16*
X135255000Y-102235000D03*
X132755000Y-102235000D03*
D17*
X139655000Y-109235000D03*
X130855000Y-109235000D03*
%TD*%
D11*
%TO.C,R1*%
X43180000Y-120015001D03*
X43180000Y-127635001D03*
%TD*%
D18*
%TO.C,U3*%
X147320000Y-110490000D03*
D11*
X149860000Y-110490000D03*
X152400000Y-110490000D03*
X154940000Y-110490000D03*
X154940000Y-102870000D03*
X152400000Y-102870000D03*
X149860000Y-102870000D03*
X147320000Y-102870000D03*
%TD*%
D14*
%TO.C,TP5*%
X43180000Y-116840000D03*
%TD*%
%TO.C,TP6*%
X39370000Y-116840000D03*
%TD*%
D11*
%TO.C,C6*%
X149860000Y-99060000D03*
X154860000Y-99060000D03*
%TD*%
D19*
%TO.C,C3*%
X112957893Y-92120386D03*
D20*
X114372107Y-93534600D03*
%TD*%
D12*
%TO.C,REF\u002A\u002A*%
X319000000Y-112000000D03*
%TD*%
D11*
%TO.C,R2*%
X143510000Y-93980000D03*
X151130000Y-93980000D03*
%TD*%
D14*
%TO.C,J1*%
X165100000Y-105410000D03*
D13*
X165100000Y-102870000D03*
%TD*%
D11*
%TO.C,C7*%
X69215000Y-112395000D03*
X69215000Y-107395000D03*
%TD*%
D12*
%TO.C,REF\u002A\u002A*%
X39000000Y-79000000D03*
%TD*%
D21*
%TO.C,C4*%
X158750000Y-102870000D03*
D20*
X160750000Y-102870000D03*
%TD*%
D14*
%TO.C,J3*%
X125730000Y-104775000D03*
D13*
X125730000Y-102235000D03*
%TD*%
D12*
%TO.C,REF\u002A\u002A*%
X144000000Y-79000000D03*
%TD*%
D22*
%TO.C,U4*%
X62864998Y-104454999D03*
D23*
X60325002Y-104454998D03*
X57785001Y-104455001D03*
X55245000Y-104454998D03*
X52705000Y-104455001D03*
X50165001Y-104454998D03*
X47624998Y-104454998D03*
X47625002Y-112394999D03*
X50164998Y-112395000D03*
X52704999Y-112394997D03*
X55245000Y-112395000D03*
X57785000Y-112394997D03*
X60324999Y-112395000D03*
X62865002Y-112395000D03*
%TD*%
D24*
%TO.C,J2*%
X118084000Y-87074000D03*
X118084000Y-81274000D03*
X113284000Y-84074000D03*
%TD*%
%LPD*%
M02*
