M48
; DRILL file {KiCad 9.0.5} date 2025-11-20T09:04:45-0800
; FORMAT={-:-/ absolute / metric / decimal}
; #@! TF.CreationDate,2025-11-20T09:04:45-08:00
; #@! TF.GenerationSoftware,Kicad,Pcbnew,9.0.5
; #@! TF.FileFunction,Plated,1,2,PTH
FMAT,2
METRIC
; #@! TA.AperFunction,Plated,PTH,ViaDrill
T1C0.400
; #@! TA.AperFunction,Plated,PTH,ComponentDrill
T2C0.600
; #@! TA.AperFunction,Plated,PTH,ComponentDrill
T3C0.740
; #@! TA.AperFunction,Plated,PTH,ComponentDrill
T4C0.800
; #@! TA.AperFunction,Plated,PTH,ComponentDrill
T5C1.000
; #@! TA.AperFunction,Plated,PTH,ComponentDrill
T6C2.200
; #@! TA.AperFunction,Plated,PTH,ComponentDrill
T7C2.840
; #@! TA.AperFunction,Plated,PTH,ComponentDrill
T8C3.200
%
G90
G05
T1
X49.53Y-86.995
X49.53Y-88.9
X49.53Y-94.615
X49.53Y-96.52
X51.435Y-86.995
X51.435Y-88.9
X51.435Y-94.615
X51.435Y-96.52
X55.977Y-126.956
X55.977Y-128.861
X56.073Y-138.878
X56.073Y-140.783
X57.882Y-126.956
X57.882Y-128.861
X57.978Y-138.878
X57.978Y-140.783
X59.055Y-107.315
X59.055Y-109.22
X60.96Y-107.315
X60.96Y-109.22
X69.85Y-86.995
X69.85Y-88.9
X69.85Y-94.615
X69.85Y-96.52
X71.755Y-86.995
X71.755Y-88.9
X71.755Y-94.615
X71.755Y-96.52
X82.55Y-107.315
X82.55Y-109.22
X82.55Y-127.0
X82.55Y-128.905
X82.567Y-114.857
X82.567Y-116.762
X82.646Y-138.922
X82.646Y-140.827
X84.455Y-107.315
X84.455Y-109.22
X84.455Y-127.0
X84.455Y-128.905
X84.472Y-114.857
X84.472Y-116.762
X84.551Y-138.922
X84.551Y-140.827
X89.535Y-86.995
X89.535Y-88.9
X89.535Y-94.615
X89.535Y-96.52
X91.44Y-86.995
X91.44Y-88.9
X91.44Y-94.615
X91.44Y-96.52
X118.11Y-100.965
X118.11Y-102.87
X118.11Y-127.0
X118.11Y-128.905
X118.127Y-114.857
X118.127Y-116.762
X118.206Y-138.922
X118.206Y-140.827
X120.015Y-100.965
X120.015Y-102.87
X120.015Y-127.0
X120.015Y-128.905
X120.032Y-114.857
X120.032Y-116.762
X120.111Y-138.922
X120.111Y-140.827
X144.78Y-127.0
X144.78Y-128.905
X144.797Y-114.857
X144.797Y-116.762
X144.876Y-138.922
X144.876Y-140.827
X146.05Y-84.455
X146.05Y-86.36
X146.685Y-127.0
X146.685Y-128.905
X146.702Y-114.857
X146.702Y-116.762
X146.781Y-138.922
X146.781Y-140.827
X147.955Y-84.455
X147.955Y-86.36
X180.34Y-127.0
X180.34Y-128.905
X180.357Y-114.857
X180.357Y-116.762
X180.436Y-138.922
X180.436Y-140.827
X182.245Y-127.0
X182.245Y-128.905
X182.262Y-114.857
X182.262Y-116.762
X182.341Y-138.922
X182.341Y-140.827
X207.01Y-127.0
X207.01Y-128.905
X207.027Y-114.857
X207.027Y-116.762
X207.106Y-138.922
X207.106Y-140.827
X208.915Y-127.0
X208.915Y-128.905
X208.932Y-114.857
X208.932Y-116.762
X209.011Y-138.922
X209.011Y-140.827
X242.57Y-127.0
X242.57Y-128.905
X242.587Y-114.857
X242.587Y-116.762
X242.666Y-138.922
X242.666Y-140.827
X244.475Y-127.0
X244.475Y-128.905
X244.492Y-114.857
X244.492Y-116.762
X244.571Y-138.922
X244.571Y-140.827
X269.24Y-127.0
X269.24Y-128.905
X269.257Y-114.857
X269.257Y-116.762
X269.336Y-138.922
X269.336Y-140.827
X271.145Y-127.0
X271.145Y-128.905
X271.162Y-114.857
X271.162Y-116.762
X271.241Y-138.922
X271.241Y-140.827
X304.8Y-127.0
X304.8Y-128.905
X304.817Y-114.857
X304.817Y-116.762
X304.896Y-138.922
X304.896Y-140.827
X306.705Y-127.0
X306.705Y-128.905
X306.722Y-114.857
X306.722Y-116.762
X306.801Y-138.922
X306.801Y-140.827
X311.15Y-125.73
X313.055Y-127.635
X313.69Y-123.19
X315.595Y-125.095
T2
X112.958Y-92.12
X114.372Y-93.535
X158.75Y-102.87
X160.75Y-102.87
T3
X47.625Y-104.455
X47.625Y-112.395
X50.165Y-112.395
X50.165Y-104.455
X52.705Y-112.395
X52.705Y-104.455
X55.245Y-104.455
X55.245Y-112.395
X57.785Y-112.395
X57.785Y-104.455
X60.325Y-112.395
X60.325Y-104.455
X62.865Y-104.455
X62.865Y-112.395
T4
X41.275Y-89.575
X41.275Y-94.575
X43.18Y-120.015
X43.18Y-127.635
X49.53Y-118.745
X49.53Y-122.545
X69.215Y-107.395
X69.215Y-112.395
X143.51Y-93.98
X147.32Y-102.87
X147.32Y-110.49
X149.86Y-99.06
X149.86Y-102.87
X149.86Y-110.49
X151.13Y-93.98
X152.4Y-102.87
X152.4Y-110.49
X153.75Y-93.98
X154.86Y-99.06
X154.94Y-102.87
X154.94Y-110.49
X158.75Y-93.98
T5
X38.09Y-83.723
X38.1Y-99.06
X39.37Y-116.84
X40.63Y-83.723
X40.64Y-99.06
X43.17Y-83.723
X43.18Y-99.06
X43.18Y-116.84
X45.71Y-83.723
X45.72Y-99.06
X48.25Y-83.723
X48.26Y-99.06
X50.79Y-83.723
X50.8Y-99.06
X53.33Y-83.723
X53.34Y-99.06
X55.87Y-83.723
X55.88Y-99.06
X58.41Y-83.723
X58.42Y-99.06
X60.95Y-83.723
X60.96Y-99.06
X63.49Y-83.723
X63.5Y-99.06
X66.03Y-83.723
X66.04Y-99.06
X68.57Y-83.723
X68.58Y-99.06
X71.11Y-83.723
X71.12Y-99.06
X73.65Y-83.723
X73.66Y-99.06
X76.19Y-83.723
X76.2Y-99.06
X78.73Y-83.723
X78.74Y-99.06
X81.27Y-83.723
X81.28Y-99.06
X83.81Y-83.723
X83.82Y-99.06
X86.35Y-83.723
X86.36Y-99.06
X88.89Y-83.723
X88.9Y-99.06
X91.43Y-83.723
X91.44Y-99.06
X93.97Y-83.723
X93.98Y-99.06
X96.51Y-83.723
X96.52Y-99.06
X125.73Y-102.235
X125.73Y-104.775
X132.755Y-102.235
X135.255Y-102.235
X137.755Y-102.235
X165.1Y-102.87
X165.1Y-105.41
T6
X39.0Y-79.0
X39.0Y-139.0
X144.0Y-79.0
X177.0Y-112.0
X319.0Y-112.0
X319.0Y-139.0
T7
X130.855Y-109.235
X139.655Y-109.235
T8
X113.284Y-84.074
X118.084Y-81.274
X118.084Y-87.074
M30
